# xmcd
#
# Track frame offsets: 
#        150
#        22330
#        40253
#        77385
#        92345
#        107620
#        122158
#        145048
#        163893
#        191393
#        216128
#
# Disc length: 3015 seconds
#
# Revision: 16
# Processed by: cddbd v1.5.2PL0 Copyright (c) Steve Scherf et al.
# Submitted via: ExactAudioCopy v1.3
#
DISCID=8b0bc50b
DTITLE=Eric Clapton - Behind The Sun
DYEAR=1985
DGENRE=Rock
TTITLE0=She's Waiting
TTITLE1=See What Love Can Do
TTITLE2=Same Old Blues
TTITLE3=Knock On Wood
TTITLE4=Something's Happening
TTITLE5=Forever Man
TTITLE6=It All Depends
TTITLE7=Tangled In Love
TTITLE8=Never Make You Cry
TTITLE9=Just Like A Prisoner
TTITLE10=Behind The Sun
EXTD=YEAR: 2000
EXTT0=
EXTT1=
EXTT2=
EXTT3=
EXTT4=
EXTT5=
EXTT6=
EXTT7=
EXTT8=
EXTT9=
EXTT10=
PLAYORDER=
